<svg width="28" height="20" viewBox="0 0 28 20" fill="none" xmlns="http://www.w3.org/2000/svg">
<path d="M28 9.53407V10.5992C28 11.1888 27.5223 11.6643 26.9324 11.6643H24.7961C24.7961 11.6643 21.624 11.695 21.5933 11.6643H19.457C18.8659 11.6643 18.3894 11.1877 18.3894 10.5992V9.53407C18.3894 8.94443 18.8671 8.46894 19.457 8.46894H21.5933H24.7961H26.9324C27.5223 8.46784 28 8.94443 28 9.53407ZM17.2307 18.4186C17.2873 18.647 17.2962 18.8221 17.2595 18.934C17.2195 19.0471 17.0984 19.1069 16.8918 19.1069H13.389C13.0691 19.1069 12.8514 19.0338 12.738 18.8919C12.6247 18.7467 12.5214 18.5206 12.4281 18.218L11.5216 14.8619H5.80692L4.86263 18.3023C4.76709 18.6082 4.646 18.821 4.49491 18.934C4.34382 19.0471 4.13719 19.1069 3.87279 19.1069H0.738844C0.531099 19.1069 0.390011 19.0648 0.315578 18.9773C0.238924 18.8919 0.247811 18.6869 0.343352 18.3599L5.7947 0.834592C5.88913 0.567478 6.00134 0.360215 6.13354 0.215021C6.26352 0.0731515 6.51792 0 6.89675 0H10.4551C10.8506 0 11.1083 0.0786931 11.2316 0.231646C11.3538 0.384599 11.4616 0.595187 11.556 0.862301L17.2307 18.4186ZM10.6595 11.6654L8.75756 4.62738H8.61758L6.68456 11.6654H10.6595Z" fill="white"/>
</svg>
