<svg width="29" height="20" viewBox="0 0 29 20" fill="none" xmlns="http://www.w3.org/2000/svg">
<path d="M28.1489 9.69856V10.7821C28.1489 11.3819 27.6641 11.8656 27.0654 11.8656H24.8973V14.0337C24.8973 14.6335 24.4125 15.1172 23.8138 15.1172H22.7303C22.1305 15.1172 21.6468 14.6324 21.6468 14.0337V11.8656H19.4786C18.8788 11.8656 18.3951 11.3808 18.3951 10.7821V9.69856C18.3951 9.09875 18.8799 8.61506 19.4786 8.61506H21.6468V6.44692C21.6468 5.8471 22.1316 5.36341 22.7303 5.36341H23.8138C24.4136 5.36341 24.8973 5.84823 24.8973 6.44692V8.61506H27.0654C27.6641 8.61393 28.1489 9.09875 28.1489 9.69856ZM17.2192 18.7364C17.2767 18.9687 17.2857 19.1468 17.2485 19.2607C17.2079 19.3757 17.085 19.4366 16.8753 19.4366H13.3203C12.9956 19.4366 12.7746 19.3622 12.6596 19.2179C12.5446 19.0702 12.4398 18.8402 12.3451 18.5324L11.4251 15.1184H5.62531L4.66695 18.618C4.56999 18.9292 4.44709 19.1457 4.29376 19.2607C4.14042 19.3757 3.93071 19.4366 3.66237 19.4366H0.481753C0.270915 19.4366 0.127725 19.3937 0.052184 19.3047C-0.025612 19.2179 -0.0165922 19.0093 0.0803709 18.6767L5.61291 0.848991C5.70874 0.577269 5.82262 0.36643 5.95679 0.218731C6.0887 0.0744136 6.34689 0 6.73136 0H10.3427C10.7441 0 11.0056 0.0800508 11.1308 0.235643C11.2548 0.391235 11.3642 0.605456 11.46 0.877178L17.2192 18.7364ZM10.5501 11.8667L8.61989 4.70722H8.47783L6.51602 11.8667H10.5501Z" fill="white"/>
</svg>
