<?xml version="1.0" standalone="no"?>
<!DOCTYPE svg PUBLIC "-//W3C//DTD SVG 20010904//EN"
 "http://www.w3.org/TR/2001/REC-SVG-20010904/DTD/svg10.dtd">
<svg version="1.0" xmlns="http://www.w3.org/2000/svg"
 width="1920.000000pt" height="2269.000000pt" viewBox="0 0 1920.000000 2269.000000"
 preserveAspectRatio="xMidYMid meet">

<g transform="translate(0.000000,2269.000000) scale(0.100000,-0.100000)"
fill="#1f3c92" stroke="none">
<path d="M14781 22009 c-92 -11 -239 -49 -337 -89 -278 -111 -515 -344 -615
-604 -54 -140 -72 -243 -72 -411 0 -242 54 -451 185 -713 70 -141 71 -142 64
-204 -4 -39 -16 -78 -33 -107 -38 -66 -149 -171 -215 -205 l-57 -28 57 -42
c32 -24 75 -63 96 -87 37 -43 112 -177 103 -185 -2 -2 -17 14 -32 36 -70 101
-211 195 -336 225 -66 15 -236 18 -359 6 l-64 -6 80 -47 c325 -188 541 -516
584 -887 7 -56 10 -104 7 -107 -3 -3 -13 30 -22 73 -107 482 -408 795 -863
898 l-102 24 -132 -35 c-177 -47 -295 -91 -473 -179 -135 -65 -365 -205 -340
-205 6 0 87 11 180 25 99 14 212 24 270 24 l100 -1 -115 -18 c-189 -30 -390
-78 -665 -157 -143 -42 -323 -93 -400 -114 -77 -21 -178 -55 -225 -75 -120
-51 -280 -135 -275 -145 3 -4 18 -10 35 -14 73 -16 193 -119 264 -225 34 -52
116 -243 116 -272 0 -7 -22 21 -48 62 -127 198 -285 331 -460 389 l-62 21
-123 -46 c-331 -125 -631 -302 -918 -542 -107 -90 -165 -160 -206 -247 -24
-51 -28 -73 -28 -145 0 -73 4 -93 29 -143 40 -82 112 -165 208 -240 88 -69
217 -151 225 -144 2 3 -3 29 -11 58 -18 62 -56 244 -56 267 0 8 24 -32 53 -89
72 -144 152 -252 278 -374 123 -118 213 -180 609 -417 790 -474 1437 -786
1945 -940 146 -44 227 -75 300 -114 130 -69 236 -104 317 -105 62 -1 62 -1 33
-14 -16 -8 -61 -14 -99 -15 -77 0 -198 36 -313 93 -37 19 -113 45 -168 57 -55
12 -106 25 -112 27 -7 3 12 -46 41 -108 63 -132 92 -214 112 -317 18 -93 18
-228 0 -312 -8 -36 -12 -67 -10 -69 5 -5 126 65 222 129 48 32 127 92 176 134
48 42 90 76 93 76 10 0 -61 -117 -113 -187 -60 -80 -132 -156 -214 -224 -66
-55 -173 -129 -188 -129 -5 0 -66 36 -134 79 -355 227 -648 358 -922 413 -157
32 -407 31 -553 0 -258 -56 -486 -167 -733 -357 -91 -70 -208 -132 -305 -162
-48 -14 -93 -18 -220 -18 -139 1 -176 5 -279 29 -224 52 -496 148 -1161 406
-1207 470 -2032 716 -2845 849 -651 107 -1291 119 -1850 36 -347 -51 -770
-166 -1058 -287 l-102 -43 -449 -785 c-247 -432 -448 -786 -447 -787 1 -2 52
19 113 46 1231 544 2319 705 3583 530 440 -61 873 -150 1505 -309 305 -77 425
-114 930 -284 996 -337 1204 -390 1540 -389 179 0 295 19 452 74 210 74 333
151 710 441 172 133 361 228 559 280 116 31 125 32 334 32 198 0 225 -2 339
-28 119 -26 425 -126 443 -144 5 -5 -31 -46 -87 -97 -53 -48 -94 -89 -92 -91
5 -6 138 57 222 104 l70 40 60 -30 c33 -17 62 -32 64 -34 12 -11 -160 -145
-277 -216 l-83 -50 -137 17 c-176 23 -493 16 -652 -14 -304 -56 -565 -143
-890 -298 -292 -140 -646 -270 -850 -314 -86 -19 -136 -23 -280 -23 -260 0
-372 19 -1305 219 -584 125 -873 183 -1220 244 -2157 379 -3712 306 -5080
-238 -99 -39 -220 -91 -269 -114 l-88 -42 -449 -784 c-247 -432 -447 -786
-445 -788 2 -2 63 25 135 62 322 161 818 372 1161 493 690 245 1358 381 2074
423 260 15 1026 6 1316 -15 731 -54 1140 -103 1820 -216 1093 -182 1414 -220
1871 -220 313 0 503 19 744 75 375 87 681 240 1095 545 85 63 353 207 419 226
19 5 5 -15 -56 -83 -310 -346 -489 -668 -637 -1146 -44 -141 -178 -617 -198
-702 -22 -93 29 -257 128 -412 19 -29 31 -53 28 -53 -16 0 -135 91 -185 142
-57 57 -60 59 -82 45 -22 -15 -154 -125 -677 -563 -151 -126 -321 -265 -378
-309 l-102 -79 57 -30 c80 -42 212 -178 301 -309 40 -59 71 -107 68 -107 -3 0
-50 37 -104 83 -232 193 -488 352 -762 472 -134 59 -401 149 -505 169 -229 45
-561 59 -765 31 -274 -37 -719 -203 -939 -350 -72 -48 -80 -51 -62 -26 23 33
139 137 216 195 l50 38 -40 -6 c-210 -32 -763 -57 -1300 -59 -479 -2 -545 3
-829 68 -240 54 -251 60 -476 222 -113 82 -235 170 -272 196 l-67 48 -38 -20
c-114 -58 -303 -225 -482 -426 -63 -70 -63 -70 -25 -15 137 200 332 417 426
475 27 17 48 32 47 35 -1 8 -149 114 -177 127 -38 17 -120 16 -173 -2 -24 -8
-74 -37 -110 -65 l-65 -49 -249 -463 c-137 -255 -272 -499 -301 -543 -162
-252 -331 -571 -422 -795 -159 -395 -206 -742 -136 -1013 24 -95 109 -169 211
-184 l38 -5 -35 30 c-19 17 -38 31 -42 32 -8 0 -25 54 -32 107 -8 57 10 214
39 343 27 120 91 340 101 349 4 3 4 -2 0 -13 -16 -46 -58 -303 -68 -423 -14
-158 -2 -292 33 -373 l22 -52 41 6 c62 10 154 60 231 127 61 52 76 72 112 150
77 166 165 276 310 392 40 31 83 72 97 90 40 52 74 136 86 212 6 38 13 71 15
73 11 11 27 -122 21 -180 l-6 -67 49 21 c56 23 59 27 71 120 10 86 -2 196 -33
289 l-25 74 40 -44 c45 -52 100 -163 118 -238 l12 -52 29 22 c16 11 32 30 34
42 20 103 7 246 -35 378 l-29 92 35 -40 c58 -67 102 -148 135 -248 l32 -95 66
40 c199 122 429 213 652 258 l55 11 -23 68 c-48 145 -52 286 -10 406 l14 40 7
-75 c14 -147 52 -253 128 -356 l45 -60 232 4 c415 8 1006 -39 1766 -139 387
-51 910 -134 1130 -179 79 -16 211 -25 624 -45 l523 -25 67 -44 c146 -96 330
-172 488 -202 53 -10 141 -16 223 -17 176 0 116 -14 -100 -23 -232 -10 -418
23 -640 111 -59 24 -121 39 -204 50 -65 9 -120 15 -122 13 -1 -2 36 -14 84
-27 136 -38 331 -106 442 -156 265 -119 497 -136 742 -55 160 54 354 167 481
281 118 106 219 271 253 414 16 69 15 231 -1 310 l-6 30 30 -32 c50 -54 75
-154 76 -305 0 -71 1 -128 3 -128 21 0 531 306 742 445 142 94 400 275 428
300 2 2 -14 28 -37 57 -64 85 -94 160 -99 250 -3 43 -2 78 2 78 3 0 12 -16 20
-35 39 -92 157 -230 271 -316 52 -39 54 -40 83 -25 42 22 128 90 195 155 l58
56 34 -40 c24 -28 -129 290 -490 1020 -391 789 -531 1080 -547 1140 -18 66
-21 108 -22 245 0 180 14 262 76 440 32 90 138 323 145 316 2 -2 -1 -62 -8
-133 -26 -301 43 -640 194 -948 192 -390 498 -717 865 -925 50 -29 92 -53 92
-55 0 -6 -123 18 -184 36 -91 27 -254 111 -357 185 -46 32 -137 111 -201 175
-65 64 -109 102 -99 85 10 -17 42 -71 71 -121 81 -137 212 -331 283 -420 91
-113 230 -244 312 -293 76 -46 66 -55 -26 -23 -119 40 -242 120 -368 237 -74
69 -74 69 -46 24 51 -81 111 -154 192 -231 94 -90 149 -129 266 -190 l88 -45
-49 -32 c-52 -33 -95 -89 -117 -151 l-13 -38 63 43 c113 75 313 135 444 133
42 -1 65 -4 51 -6 -243 -40 -465 -244 -546 -501 l-13 -43 42 6 c72 9 760 75
762 73 0 -2 18 -48 40 -103 165 -427 451 -876 874 -1369 145 -169 461 -657
582 -898 l39 -78 40 75 c77 147 191 304 284 395 l47 45 -67 -110 c-239 -395
-358 -820 -340 -1220 27 -612 194 -1134 506 -1575 117 -166 348 -367 572 -500
56 -33 96 -60 90 -60 -7 0 -81 22 -164 50 -83 27 -153 50 -154 50 -2 0 35 -54
81 -121 336 -483 494 -915 512 -1404 l6 -150 -105 -320 c-58 -176 -108 -330
-112 -343 -7 -20 -1 -26 66 -56 82 -38 274 -102 418 -140 123 -32 96 -32 -77
-1 -159 30 -260 55 -362 89 l-72 24 -8 -21 c-25 -64 -41 -120 -41 -139 0 -54
26 -105 80 -158 102 -100 104 -100 705 -180 292 -38 586 -81 654 -95 816 -166
1436 -149 1836 52 113 57 154 90 176 140 22 52 37 153 22 153 -5 0 -38 -12
-73 -26 -91 -37 -272 -80 -455 -109 -88 -14 -164 -25 -170 -24 -5 0 67 20 160
44 94 24 217 60 274 80 107 37 241 100 241 112 0 4 -12 24 -27 46 -55 80 -240
187 -323 187 -76 0 -236 28 -317 55 -95 32 -217 95 -292 150 -48 35 -68 43
-126 51 -116 15 -212 9 -293 -18 l-73 -25 28 29 c37 39 134 85 210 101 34 7
65 16 69 19 3 4 -19 19 -49 34 l-56 28 -78 -17 c-113 -24 -229 -86 -320 -171
-59 -55 -74 -65 -68 -46 24 84 137 218 240 286 30 20 54 39 51 41 -8 8 -165
-30 -228 -56 -87 -37 -191 -107 -267 -180 -34 -32 -61 -54 -61 -49 0 6 16 41
37 80 47 89 154 204 251 269 42 28 77 54 77 58 0 4 -42 43 -93 85 -138 116
-274 276 -371 436 -27 44 -51 85 -53 91 -2 5 -41 -11 -88 -36 -94 -48 -208
-83 -285 -86 -77 -3 -169 0 -164 6 3 2 45 16 94 30 49 15 120 42 157 62 77 40
208 155 208 183 0 9 -34 197 -75 416 -48 261 -112 555 -184 849 -137 562 -320
1332 -446 1875 l-97 415 14 110 c20 168 17 487 -6 610 -43 233 -132 422 -266
568 -29 32 -55 56 -57 53 -2 -2 9 -30 25 -62 43 -86 77 -186 104 -305 19 -89
23 -130 22 -279 -1 -96 -5 -195 -11 -220 -7 -37 -9 -21 -10 90 -1 195 -32 320
-124 500 -27 52 -76 132 -109 178 l-60 83 -31 437 -31 437 -169 677 c-129 515
-178 697 -207 765 -166 377 -241 659 -362 1349 -76 434 -110 580 -141 600 -19
12 -7 23 34 29 23 4 78 18 122 32 356 111 562 307 642 611 21 81 26 121 27
242 0 80 -3 167 -8 195 l-8 50 -28 -110 c-80 -319 -261 -525 -544 -621 -38
-13 -73 -24 -77 -24 -5 0 13 62 40 138 78 220 69 206 153 245 40 18 94 47 120
63 l48 30 -100 -4 -100 -4 15 36 c9 20 24 59 35 85 l19 49 -87 -55 c-155 -97
-176 -106 -249 -98 -34 4 -63 10 -63 13 0 4 48 38 107 76 127 84 245 176 331
260 100 96 94 101 -40 31 -244 -126 -534 -210 -798 -230 -77 -6 -90 -4 -140
18 l-55 25 45 12 c248 65 518 171 703 277 88 50 254 160 262 174 3 4 -23 -5
-57 -20 -257 -116 -605 -171 -892 -142 -174 18 -178 23 -45 56 834 204 1269
544 1513 1181 19 50 48 137 66 194 17 56 33 100 35 98 6 -6 -22 -281 -40 -398
-9 -58 -28 -158 -41 -223 -14 -66 -24 -128 -22 -139 2 -16 110 69 547 430 299
247 543 453 543 458 0 5 -33 18 -72 30 -39 12 -73 24 -75 26 -2 1 78 3 178 3
226 1 311 16 395 74 60 41 222 203 222 222 0 38 -123 109 -189 109 -47 0 -56
17 -13 24 50 8 123 -14 178 -53 l42 -31 5 28 c13 64 -32 198 -70 213 -68 26
-171 -2 -252 -68 l-34 -28 15 30 c34 66 97 97 241 120 34 6 37 8 31 33 -11 46
-42 99 -70 121 -56 44 -178 21 -257 -49 -21 -18 -40 -31 -42 -28 -11 11 50 80
86 99 33 17 150 48 182 49 13 0 7 68 -9 110 -14 36 -22 42 -70 56 -82 24 -161
2 -239 -67 -40 -35 -44 -31 -15 15 24 40 89 77 160 92 l55 11 -2 42 c-1 23
-13 66 -27 97 -20 44 -33 58 -63 71 -90 37 -224 -9 -297 -104 -47 -61 -59 -53
-24 15 16 31 42 60 79 85 60 42 74 71 85 181 12 120 -28 186 -113 186 -54 0
-94 -20 -127 -63 -34 -44 -52 -98 -81 -232 -34 -160 -56 -212 -127 -291 -104
-118 -169 -288 -201 -522 l-12 -94 -120 -98 c-66 -54 -121 -95 -123 -91 -1 4
17 59 42 122 184 470 211 985 81 1528 -17 71 -46 147 -92 242 -36 77 -67 138
-69 136 -1 -1 8 -44 21 -95 43 -170 58 -312 52 -514 -3 -127 -9 -197 -20 -228
-12 -36 -15 -40 -16 -19 -3 73 -34 360 -51 473 -67 436 -197 721 -405 887
l-55 44 0 68 c0 154 102 350 297 573 29 34 53 64 53 67 0 3 -19 17 -43 30 -50
30 -147 114 -147 128 0 6 20 -4 45 -21 102 -70 214 -103 345 -102 157 1 286
42 358 113 56 55 75 103 80 202 2 48 8 87 13 87 5 0 18 9 29 20 24 24 27 85 5
137 -23 54 -19 94 13 133 59 71 63 92 31 158 -25 51 -18 95 16 100 76 11 105
35 105 86 0 56 -27 103 -133 233 -56 69 -110 137 -119 152 -25 36 -22 72 8
128 23 42 25 57 21 118 -7 114 -79 295 -170 430 -69 102 -119 155 -212 224
-341 255 -725 365 -1114 320z m-35 -993 c69 -32 76 -47 13 -29 -173 51 -314
-138 -215 -288 22 -33 28 -54 29 -107 3 -90 37 -150 110 -192 45 -26 48 -30
26 -30 -102 0 -207 112 -213 228 -1 28 -11 50 -34 76 -59 68 -66 168 -17 252
60 103 190 142 301 90z m-1520 -2692 c-74 -161 -322 -419 -584 -608 -29 -21
-51 -40 -49 -42 7 -7 151 34 232 66 275 109 534 276 722 465 107 108 114 104
34 -19 -87 -134 -255 -281 -485 -425 -136 -86 -438 -242 -611 -316 -60 -26
-112 -50 -115 -53 -3 -2 27 -2 65 1 74 6 266 60 359 101 48 21 55 22 47 7 -27
-49 -154 -144 -301 -224 -47 -25 -94 -53 -105 -61 -19 -15 -18 -15 23 -16 24
0 42 -3 40 -7 -56 -109 -107 -258 -92 -272 2 -2 19 9 37 26 43 40 233 193 240
193 3 0 -10 -32 -30 -70 -33 -69 -73 -219 -88 -330 l-7 -55 39 65 c62 107 216
253 373 355 381 248 431 286 524 395 132 153 195 327 223 615 l7 70 9 -70 c4
-38 6 -144 4 -235 -5 -190 -24 -276 -86 -405 -92 -192 -216 -305 -526 -480
-239 -135 -347 -221 -403 -322 l-23 -42 133 -41 c73 -23 151 -47 173 -55 l40
-13 -39 -1 c-106 -2 -364 51 -531 109 -212 74 -479 229 -674 392 -121 101
-290 274 -404 414 -134 165 -243 251 -431 340 -117 55 -240 91 -391 113 l-120
18 50 9 c90 16 282 8 370 -15 153 -41 298 -125 461 -266 l57 -50 140 -3 c421
-11 997 170 1362 427 104 73 249 219 305 308 25 39 47 70 49 68 1 -2 -9 -29
-23 -61z m1014 -174 c79 -238 291 -432 548 -502 105 -29 345 -31 442 -4 156
43 276 127 340 239 35 60 36 59 14 -14 -23 -77 -57 -131 -123 -191 -116 -108
-257 -157 -471 -165 -74 -3 -162 0 -195 5 -33 5 -62 9 -63 7 -6 -6 180 -63
248 -76 37 -8 131 -13 220 -13 163 1 287 20 414 64 72 25 75 25 45 2 -74 -56
-202 -111 -330 -142 -279 -67 -599 -37 -829 77 -121 60 -240 172 -288 273 -36
75 -62 167 -62 223 l0 38 36 -68 c43 -84 133 -202 179 -238 19 -14 35 -24 35
-21 0 3 -20 34 -45 68 -56 75 -109 183 -129 263 -14 51 -23 256 -12 244 2 -2
14 -33 26 -69z"/>
</g>
</svg>
